<svg width="16" height="16" viewBox="0 0 24 24" fill="none" xmlns="http://www.w3.org/2000/svg">
  <path d="M12 22C11.7 22 11.43 21.87 11.24 21.64C9.62 19.72 5 13.95 5 10C5 6.13 8.13 3 12 3C15.87 3 19 6.13 19 10C19 13.95 14.38 19.72 12.76 21.64C12.57 21.87 12.3 22 12 22Z" fill="#34A853"/>
  <path d="M12 3C9.42 3 7.22 4.4 6.01 6.5L10.2 10.69L12.43 7.5H16.98C16.07 4.91 13.61 3 12 3Z" fill="#4285F4"/>
  <path d="M8.09 14.1L11.34 10.85L9.64 9.15L6.15 12.64C6.67 13.86 7.46 15.19 8.09 16.09V14.1Z" fill="#FBBC04"/>
  <path d="M16.98 7.5H12.43L9.18 10.75L11.65 13.22L16.12 8.75C16.45 8.34 16.73 7.93 16.98 7.5Z" fill="#EA4335"/>
  <circle cx="12" cy="10" r="2.1" fill="white"/>
</svg>
