<svg xmlns="http://www.w3.org/2000/svg" width="40" height="40" viewBox="0 0 40 40" fill="none">
<g clip-path="url(#clip0_439_494)" transform="scale(-1, 1) translate(-40, 0)">
<path fill-rule="evenodd" clip-rule="evenodd" d="M40 20C40 31.0456 31.0459 40 20 40C8.95436 40 0 31.0456 0 20C0 8.95436 8.95436 0 20 0C31.0459 0 40 8.95436 40 20Z" fill="#CD0C2B"/>
<path fill-rule="evenodd" clip-rule="evenodd" d="M25.6258 23.9957L28.5592 26.9289C29.8347 28.2043 29.8347 30.2724 28.5592 31.5478C27.2837 32.8233 25.2154 32.8233 23.94 31.5478L17.4105 25.0181C16.135 23.7426 16.135 21.6746 17.4105 20.3991C18.048 19.7614 18.8839 19.4426 19.7201 19.4426C21.5238 19.4426 22.9862 17.9802 22.9862 16.1766C22.9862 14.3726 21.5238 12.9102 19.7201 12.9102C17.9159 12.9102 16.4537 14.3726 16.4537 16.1766V29.2409C16.4537 31.0449 14.9916 32.5073 13.1874 32.5073C11.3837 32.5073 9.92131 31.0449 9.92131 29.2409V16.1766C9.92131 10.765 14.3085 6.37802 19.7201 6.37802C25.1314 6.37802 29.5184 10.765 29.5184 16.1766C29.5184 19.3709 27.9915 22.207 25.6258 23.9957Z" fill="white"/>
</g>
<defs>
<clipPath id="clip0_439_494">
<rect width="40" height="40" fill="white"/>
</clipPath>
</defs>
</svg>
